<?xml version="1.0" encoding="UTF-8" standalone="no"?>
<!-- Created with Inkscape (http://www.inkscape.org/) -->

<svg
   width="58.601139mm"
   height="58.601139mm"
   viewBox="0 0 221.48462 221.48463"
   version="1.1"
   id="svg1"
   xml:space="preserve"
   inkscape:version="1.3 (0e150ed6c4, 2023-07-21)"
   sodipodi:docname="logo_drawing.svg"
   xmlns:inkscape="http://www.inkscape.org/namespaces/inkscape"
   xmlns:sodipodi="http://sodipodi.sourceforge.net/DTD/sodipodi-0.dtd"
   xmlns="http://www.w3.org/2000/svg"
   xmlns:svg="http://www.w3.org/2000/svg"><sodipodi:namedview
     id="namedview1"
     pagecolor="#505050"
     bordercolor="#eeeeee"
     borderopacity="1"
     inkscape:showpageshadow="0"
     inkscape:pageopacity="0"
     inkscape:pagecheckerboard="0"
     inkscape:deskcolor="#505050"
     inkscape:document-units="mm"
     inkscape:zoom="0.25859873"
     inkscape:cx="1573.867"
     inkscape:cy="1119.4951"
     inkscape:window-width="1920"
     inkscape:window-height="1017"
     inkscape:window-x="1912"
     inkscape:window-y="-8"
     inkscape:window-maximized="1"
     inkscape:current-layer="layer1"
     showguides="true"
     inkscape:export-bgcolor="#ffffff00" /><defs
     id="defs1" /><g
     inkscape:label="Layer 1"
     inkscape:groupmode="layer"
     id="layer1"
     transform="translate(-2481.4484,-1495.0214)"><rect
       style="fill:#000000;fill-opacity:1;stroke-width:1.88976;stroke-linecap:round;paint-order:stroke fill markers"
       id="rect3"
       width="221.48465"
       height="221.48465"
       x="2481.4485"
       y="1495.0214"
       ry="110.74232"
       inkscape:export-filename="..\website\images\favicon.svg"
       inkscape:export-xdpi="561.67316"
       inkscape:export-ydpi="561.67316" /><path
       style="fill:#ff3e00;fill-opacity:1;stroke-width:0.559289"
       d="m 2596.0575,1627.2203 c 11.6765,-11.7318 -14.1195,-13.8285 -30.4175,8.6316 -21.0529,29.0124 -0.9681,57.7984 5.7155,65.4554 -45.6708,-14.1708 -64.9267,-45.991 -37.9074,-92.8797 13.6408,-23.6709 51.7788,-70.8516 59.1576,-108.114 1.0254,13.0043 13.6926,35.8476 13.6926,46.5844 0,8.759 -38.1634,55.2826 -46.6192,78.2473 16.7089,-20.9268 94.34,-33.5321 71.4078,9.2482 -7.723,10.6938 -9.8735,16.131 -8.7385,22.0897 2.0912,10.9768 18.9809,13.7733 27.4366,-0.5535 27.8593,-47.2034 -62.8599,-94.2571 -57.1427,-155.4358 6.2585,22.3218 20.8664,51.563 43.841,84.3916 54.1769,67.1862 20.4454,94.2657 -40.2011,128.4431 -27.5326,-27.7914 -26.3349,-59.9581 -0.2224,-86.1083 z"
       id="path7-0-0-4-2-3-5-4-6-9-1-9-9"
       sodipodi:nodetypes="sscscsssssczcs"
       inkscape:export-filename="..\website\images\logo.svg"
       inkscape:export-xdpi="561.67316"
       inkscape:export-ydpi="561.67316" /></g></svg>
