<?xml version="1.0" encoding="UTF-8" standalone="no"?>
<!-- Created with Inkscape (http://www.inkscape.org/) -->

<svg
   width="30.275221mm"
   height="45.222046mm"
   viewBox="0 0 114.42603 170.91797"
   version="1.1"
   id="svg1"
   xml:space="preserve"
   inkscape:version="1.3 (0e150ed6c4, 2023-07-21)"
   sodipodi:docname="logo_drawing.svg"
   xmlns:inkscape="http://www.inkscape.org/namespaces/inkscape"
   xmlns:sodipodi="http://sodipodi.sourceforge.net/DTD/sodipodi-0.dtd"
   xmlns="http://www.w3.org/2000/svg"
   xmlns:svg="http://www.w3.org/2000/svg"><sodipodi:namedview
     id="namedview1"
     pagecolor="#505050"
     bordercolor="#eeeeee"
     borderopacity="1"
     inkscape:showpageshadow="0"
     inkscape:pageopacity="0"
     inkscape:pagecheckerboard="0"
     inkscape:deskcolor="#505050"
     inkscape:document-units="mm"
     inkscape:zoom="0.36571382"
     inkscape:cx="1420.5096"
     inkscape:cy="291.2113"
     inkscape:window-width="1920"
     inkscape:window-height="1017"
     inkscape:window-x="1912"
     inkscape:window-y="-8"
     inkscape:window-maximized="1"
     inkscape:current-layer="layer1"
     showguides="true" /><defs
     id="defs1" /><g
     inkscape:label="Layer 1"
     inkscape:groupmode="layer"
     id="layer1"
     transform="translate(-1371.237,-857.34926)"><rect
       style="fill:#ffffff;fill-opacity:1;stroke:#ff3e00;stroke-width:0;stroke-dasharray:none;stroke-opacity:1;paint-order:stroke fill markers"
       id="rect12-6-7-9"
       width="429.80624"
       height="252.84264"
       x="1206.6934"
       y="-1068.1899"
       transform="scale(1,-1)" /><path
       style="fill:#000000;fill-opacity:1;stroke-width:0.448761"
       d="m 1431.406,959.17614 c 9.369,-9.41318 -11.3292,-11.09572 -24.4062,6.92581 -16.8922,23.27878 -0.7768,46.37595 4.5859,52.51985 -36.645,-11.3704 -52.0953,-36.90219 -30.4158,-74.52439 10.9451,-18.99331 41.546,-56.84957 47.4665,-86.74817 0.8228,10.43457 10.9867,28.76342 10.9867,37.37818 0,7.028 -30.6215,44.35754 -37.4061,62.78393 13.4067,-16.79114 75.696,-26.90546 57.2958,7.42054 -6.1965,8.58046 -7.9223,12.94308 -7.0114,17.72403 1.6778,8.80776 15.2298,11.05156 22.0146,-0.444 22.3534,-37.87494 -50.4375,-75.6296 -45.8502,-124.71792 5.0216,17.91039 16.7426,41.37287 35.1769,67.71386 43.4702,53.9086 16.4049,75.63634 -32.2561,103.05934 -22.0916,-22.2991 -21.1307,-48.1088 -0.1792,-69.0912 z"
       id="path7-0-0-4-2-3-5-4-6-2"
       sodipodi:nodetypes="sscscsssssczcs"
       inkscape:export-filename="logo.svg"
       inkscape:export-xdpi="96"
       inkscape:export-ydpi="96" /></g></svg>
