<?xml version="1.0" encoding="UTF-8" standalone="no"?>
<!-- Created with Inkscape (http://www.inkscape.org/) -->

<svg
   width="30.275221mm"
   height="45.222046mm"
   viewBox="0 0 114.42603 170.91797"
   version="1.1"
   id="svg1"
   xml:space="preserve"
   inkscape:version="1.3 (0e150ed6c4, 2023-07-21)"
   sodipodi:docname="logo_drawing.svg"
   xmlns:inkscape="http://www.inkscape.org/namespaces/inkscape"
   xmlns:sodipodi="http://sodipodi.sourceforge.net/DTD/sodipodi-0.dtd"
   xmlns="http://www.w3.org/2000/svg"
   xmlns:svg="http://www.w3.org/2000/svg"><sodipodi:namedview
     id="namedview1"
     pagecolor="#505050"
     bordercolor="#eeeeee"
     borderopacity="1"
     inkscape:showpageshadow="0"
     inkscape:pageopacity="0"
     inkscape:pagecheckerboard="0"
     inkscape:deskcolor="#505050"
     inkscape:document-units="mm"
     inkscape:zoom="0.36571382"
     inkscape:cx="1419.1424"
     inkscape:cy="288.47693"
     inkscape:window-width="1920"
     inkscape:window-height="1017"
     inkscape:window-x="1912"
     inkscape:window-y="-8"
     inkscape:window-maximized="1"
     inkscape:current-layer="layer1"
     showguides="true"
     inkscape:export-bgcolor="#ffffff00" /><defs
     id="defs1" /><g
     inkscape:label="Layer 1"
     inkscape:groupmode="layer"
     id="layer1"
     transform="translate(-1720.0001,-975.00002)"><path
       style="fill:#ff3e00;fill-opacity:1;stroke-width:0.448761"
       d="m 1780.1691,1076.8269 c 9.369,-9.4132 -11.3292,-11.0957 -24.4062,6.9258 -16.8922,23.2788 -0.7768,46.376 4.5859,52.5199 -36.645,-11.3705 -52.0953,-36.9022 -30.4158,-74.5244 10.9451,-18.9933 41.546,-56.8496 47.4665,-86.74819 0.8228,10.43457 10.9867,28.76339 10.9867,37.37819 0,7.028 -30.6215,44.3575 -37.4061,62.7839 13.4067,-16.7911 75.696,-26.9054 57.2958,7.4206 -6.1965,8.5804 -7.9223,12.943 -7.0114,17.724 1.6778,8.8078 15.2298,11.0516 22.0146,-0.444 22.3534,-37.8749 -50.4375,-75.6296 -45.8502,-124.71793 5.0216,17.91039 16.7426,41.37283 35.1769,67.71383 43.4702,53.9086 16.4049,75.6364 -32.2561,103.0594 -22.0916,-22.2991 -21.1307,-48.1088 -0.1792,-69.0912 z"
       id="path7-0-0-4-2-3-5-4-6-9"
       sodipodi:nodetypes="sscscsssssczcs"
       inkscape:export-filename="..\website\images\logo.svg"
       inkscape:export-xdpi="561.67316"
       inkscape:export-ydpi="561.67316" /></g></svg>
